<svg xmlns="http://www.w3.org/2000/svg" version="1.1" xmlns:xlink="http://www.w3.org/1999/xlink" xmlns:svgjs="http://svgjs.dev/svgjs" width="1500" height="287" viewBox="0 0 1500 287"><g transform="matrix(1,0,0,1,-0.9090909090909918,0.05552127019993236)"><svg viewBox="0 0 396 76" data-background-color="#ffffff" preserveAspectRatio="xMidYMid meet" height="287" width="1500" xmlns="http://www.w3.org/2000/svg" xmlns:xlink="http://www.w3.org/1999/xlink"><g id="tight-bounds" transform="matrix(1,0,0,1,0.2400000000000091,-0.014702496638307139)"><svg viewBox="0 0 395.52 76.02940499327663" height="76.02940499327663" width="395.52"><g><svg viewBox="0 0 517.1831688631945 99.41628388249897" height="76.02940499327663" width="395.52"><g transform="matrix(1,0,0,1,121.66316886319456,6.8887790947455585)"><svg viewBox="0 0 395.5199999999999 85.63872569300786" height="85.63872569300786" width="395.5199999999999"><g id="textblocktransform"><svg viewBox="0 0 395.5199999999999 85.63872569300786" height="85.63872569300786" width="395.5199999999999" id="textblock"><g><svg viewBox="0 0 395.5199999999999 85.63872569300786" height="85.63872569300786" width="395.5199999999999"><g transform="matrix(1,0,0,1,0,0)"><svg width="395.5199999999999" viewBox="1.61 -37.84 177.01999999999998 38.330000000000005" height="85.63872569300786" data-palette-color="#a437db"><path d="M11.82-23.19L11.82-23.19Q9.96-23.19 9.96-19.85L9.96-19.85 9.96-16.77Q9.96-8.28 10.14-6.29 10.33-4.3 10.51-3.52 10.69-2.73 11.01-2.12L11.01-2.12Q11.52-1.12 13.06 0L13.06 0 2.69 0Q3.59-1.81 3.78-3.08 3.98-4.35 4.08-5.76L4.08-5.76Q4.27-8.64 4.27-13.5L4.27-13.5Q4.27-19.38 4.08-24.24L4.08-24.24 3.81-30.96Q3.71-33.5 3.37-34.5L3.37-34.5Q2.83-36.08 1.61-37.35L1.61-37.35 15.26-37.35Q20.78-37.35 23.24-36.18L23.24-36.18Q25.85-34.96 25.85-32.01L25.85-32.01Q25.85-28.39 22.75-26.03L22.75-26.03Q19.09-23.19 11.82-23.19ZM17.91-27.67Q18.68-28.44 19.04-29.31 19.41-30.18 19.41-30.92 19.41-31.67 19.2-32.4 18.99-33.13 18.38-33.69L18.38-33.69Q17.02-34.91 13.7-34.91L13.7-34.91Q11.69-34.91 11.08-34.42L11.08-34.42Q9.96-33.5 9.96-30.79L9.96-30.79Q9.96-27.73 10.45-27.01 10.94-26.29 11.57-26.09 12.21-25.88 13.51-25.88 14.82-25.88 15.98-26.39 17.14-26.9 17.91-27.67ZM46.7-14.53L46.7-14.53 46.68-21.22Q46.68-22.58 46.24-23.07L46.24-23.07Q45.43-23.97 43.26-23.97L43.26-23.97 39.4-23.97Q36.37-23.97 36.08-22.27L36.08-22.27Q36.01-21.78 36.01-21.22L36.01-21.22 35.98-13.89Q35.98-4.42 36.96-2.03L36.96-2.03Q37.35-1.1 38.18 0L38.18 0 29.03 0Q29.81-1.86 29.94-3.1 30.08-4.35 30.22-6.18L30.22-6.18Q30.49-10.01 30.49-14.94 30.49-19.87 30.47-21.74 30.44-23.61 30.42-25.39L30.42-25.39Q30.25-32.79 29.95-34.27 29.66-35.74 29.47-36.25L29.47-36.25 29.03-37.35 38.18-37.35Q36.42-35.4 36.23-32.08L36.23-32.08Q36.15-31.08 36.15-29.98 36.15-28.88 36.36-28.26 36.57-27.64 37.06-27.34L37.06-27.34Q37.72-26.9 40.16-26.9L40.16-26.9 42.48-26.9Q44.97-26.9 45.55-27.27L45.55-27.27Q46.53-27.91 46.53-30.03L46.53-30.03Q46.53-35.23 44.48-37.35L44.48-37.35 53.64-37.35Q52.9-35.74 52.74-34.38 52.59-33.01 52.51-31.75 52.44-30.49 52.37-28.83 52.29-27.17 52.24-25.39L52.24-25.39Q52.17-21.24 52.17-17.87L52.17-17.87Q52.17-4.17 53.2-1.1L53.2-1.1Q53.37-0.59 53.64 0L53.64 0 44.48 0Q45.7-1.64 45.97-2.82 46.24-4 46.38-5.62L46.38-5.62Q46.7-8.72 46.7-14.53ZM72.58-1.95L72.58-1.95Q77.27-1.95 78.63-13.38L78.63-13.38Q79.1-17.24 79.1-22.46L79.1-22.46Q79.1-35.4 72.53-35.4L72.53-35.4Q65.96-35.4 65.96-22.46L65.96-22.46Q65.96-7.2 69.89-3.2L69.89-3.2Q71.11-1.95 72.58-1.95ZM72.53 0.49L72.53 0.49Q66.04 0.49 62.74-5.62L62.74-5.62Q59.57-11.5 59.57-22.46L59.57-22.46Q59.57-33.86 66.57-36.82L66.57-36.82Q69.04-37.84 72.53-37.84L72.53-37.84Q82.54-37.84 84.76-28.96L84.76-28.96Q85.49-26.1 85.49-21.61 85.49-17.11 84.71-12.85 83.93-8.59 82.32-5.62L82.32-5.62Q79.02 0.49 72.53 0.49ZM101.82-23.19L101.82-23.19Q98.99-23.19 98.99-19.85L98.99-19.85Q98.99-5.98 99.46-3.52L99.46-3.52Q99.72-2.03 100.14-1.29L100.14-1.29 100.87 0 92.2 0Q92.99-1.86 93.12-3.1 93.25-4.35 93.35-5.76L93.35-5.76Q93.55-8.64 93.55-13.5L93.55-13.5Q93.55-19.38 93.35-24.24L93.35-24.24 93.08-30.96Q92.99-33.5 92.64-34.5L92.64-34.5Q92.11-36.08 90.89-37.35L90.89-37.35 103.8-37.35Q109.71-37.35 112.35-36.18L112.35-36.18Q115.13-34.96 115.13-32.01L115.13-32.01Q115.13-29.42 113.2-27.15L113.2-27.15Q111.39-25.05 108.46-23.8L108.46-23.8Q108.83-14.43 114.35-5.81L114.35-5.81Q116.72-2.08 119.18 0L119.18 0 110.03 0Q107.63-3.27 105.61-13.26L105.61-13.26Q104.92-16.72 104.72-19.02 104.51-21.31 104.37-21.79 104.24-22.27 103.95-22.56L103.95-22.56Q103.36-23.19 101.82-23.19ZM107.45-27.55Q108.12-28.27 108.4-29.1 108.68-29.93 108.68-30.7 108.68-31.47 108.48-32.24 108.27-33.01 107.66-33.59L107.66-33.59Q106.32-34.91 102.97-34.91L102.97-34.91Q101.73-34.91 100.96-34.81 100.19-34.72 99.75-34.28L99.75-34.28Q98.99-33.54 98.99-30.54L98.99-30.54Q98.99-27.91 99.55-27.17L99.55-27.17Q100.55-25.88 102.58-25.88 104.61-25.88 105.69-26.35 106.78-26.83 107.45-27.55ZM133.53-1.95L133.53-1.95Q138.22-1.95 139.59-13.38L139.59-13.38Q140.05-17.24 140.05-22.46L140.05-22.46Q140.05-35.4 133.49-35.4L133.49-35.4Q126.92-35.4 126.92-22.46L126.92-22.46Q126.92-7.2 130.85-3.2L130.85-3.2Q132.07-1.95 133.53-1.95ZM133.49 0.49L133.49 0.49Q126.99 0.49 123.7-5.62L123.7-5.62Q120.52-11.5 120.52-22.46L120.52-22.46Q120.52-33.86 127.53-36.82L127.53-36.82Q129.99-37.84 133.49-37.84L133.49-37.84Q143.5-37.84 145.72-28.96L145.72-28.96Q146.45-26.1 146.45-21.61 146.45-17.11 145.67-12.85 144.89-8.59 143.28-5.62L143.28-5.62Q139.98 0.49 133.49 0.49ZM165.71-1.95L165.71-1.95Q170.4-1.95 171.76-13.38L171.76-13.38Q172.23-17.24 172.23-22.46L172.23-22.46Q172.23-35.4 165.66-35.4L165.66-35.4Q159.09-35.4 159.09-22.46L159.09-22.46Q159.09-7.2 163.02-3.2L163.02-3.2Q164.25-1.95 165.71-1.95ZM165.66 0.49L165.66 0.49Q159.17 0.49 155.87-5.62L155.87-5.62Q152.7-11.5 152.7-22.46L152.7-22.46Q152.7-33.86 159.7-36.82L159.7-36.82Q162.17-37.84 165.66-37.84L165.66-37.84Q175.67-37.84 177.89-28.96L177.89-28.96Q178.63-26.1 178.63-21.61 178.63-17.11 177.84-12.85 177.06-8.59 175.45-5.62L175.45-5.62Q172.16 0.49 165.66 0.49Z" opacity="1" transform="matrix(1,0,0,1,0,0)" fill="#a437db" class="wordmark-text-0" data-fill-palette-color="primary" id="text-0"></path></svg></g></svg></g></svg></g></svg></g><g><svg viewBox="0 0 101.44592105649204 99.41628388249897" height="99.41628388249897" width="101.44592105649204"><g><svg xmlns="http://www.w3.org/2000/svg" xmlns:xlink="http://www.w3.org/1999/xlink" version="1.1" x="0" y="0" viewBox="11.000749999999996 12 75.51075000000002 74" enable-background="new 0 0 100 100" xml:space="preserve" height="99.41628388249897" width="101.44592105649204" class="icon-icon-0" data-fill-palette-color="accent" id="icon-0"><g fill="#8b3c7f" data-fill-palette-color="accent"><path d="M70.659 28.521l5.866 1.183c0.814 0.164 0.814 1.327 0 1.491l-5.866 1.183c-0.3 0.061-0.535 0.295-0.595 0.595l-1.183 5.866c-0.164 0.814-1.327 0.814-1.491 0l-1.183-5.866c-0.061-0.3-0.295-0.535-0.595-0.595l-5.866-1.183c-0.814-0.164-0.814-1.327 0-1.491l5.866-1.183c0.3-0.061 0.535-0.295 0.595-0.595l1.183-5.866c0.164-0.814 1.327-0.814 1.491 0l1.183 5.866C70.125 28.226 70.359 28.461 70.659 28.521z" fill="#8b3c7f" data-fill-palette-color="accent"></path><path d="M82.194 21.097l3.911 0.789c0.542 0.109 0.542 0.885 0 0.994l-3.911 0.789c-0.2 0.04-0.356 0.197-0.397 0.397l-0.789 3.911c-0.109 0.542-0.885 0.542-0.994 0l-0.789-3.911c-0.04-0.2-0.197-0.356-0.397-0.397l-3.911-0.789c-0.542-0.109-0.542-0.885 0-0.994l3.911-0.789c0.2-0.04 0.356-0.197 0.397-0.397l0.789-3.911c0.109-0.542 0.885-0.542 0.994 0l0.789 3.911C81.838 20.9 81.994 21.057 82.194 21.097z" fill="#8b3c7f" data-fill-palette-color="accent"></path><path d="M25.195 69.597l6.993 1.41c1.083 0.218 1.083 1.767 0 1.985l-6.993 1.41c-0.4 0.081-0.712 0.393-0.792 0.792l-1.41 6.993c-0.218 1.083-1.767 1.083-1.985 0l-1.41-6.993c-0.081-0.4-0.393-0.712-0.792-0.792l-6.993-1.41c-1.083-0.218-1.083-1.767 0-1.985l6.993-1.41c0.4-0.081 0.712-0.393 0.792-0.792l1.41-6.993c0.218-1.083 1.767-1.083 1.985 0l1.41 6.993C24.483 69.204 24.796 69.517 25.195 69.597z" fill="#8b3c7f" data-fill-palette-color="accent"></path><g fill="#8b3c7f" data-fill-palette-color="accent"><path d="M78 45.248V45h-0.098c-1.443-3.648-3.592-6.937-6.262-9.721l-0.798 3.957c-0.062 0.307-0.174 0.59-0.322 0.847 1.18 1.519 2.216 3.157 3.04 4.918h-7.658c-0.936-4.449-2.436-8.328-4.366-11.403l-2.185-0.441c-1.304-0.263-2.215-1.376-2.215-2.706s0.911-2.443 2.215-2.706l0.404-0.082c-2.154-0.743-4.412-1.261-6.755-1.495V15c0-1.657-1.343-3-3-3s-3 1.343-3 3v11.15C31.861 27.66 20 40.47 20 56c0 1.213 0.081 2.407 0.221 3.583C20.721 59.218 21.333 59 22 59c1.452 0 2.666 0.994 2.953 2.417l1.281 6.349L27.392 68h6.925c1.094 4.679 2.828 8.68 5.031 11.717-2.614-1.176-4.993-2.775-7.062-4.704l-4.663 0.94C33.121 82.113 41.114 86 50 86c16.542 0 30-13.458 30-30C80 52.212 79.287 48.589 78 45.248zM34.099 45h-7.658c2.635-5.633 7.229-10.162 12.907-12.717C36.991 35.534 35.173 39.892 34.099 45zM48 81.693C43.845 80.41 40.343 75.189 38.468 68H48V81.693zM48 64H37.63C37.223 61.479 37 58.792 37 56c0-2.426 0.17-4.772 0.481-7H48V64zM52 81.693V68h9.532C59.657 75.189 56.155 80.41 52 81.693zM52 45V30.307c4.345 1.342 7.978 6.99 9.78 14.693H52zM74.74 64h-8.307C66.802 61.47 67 58.792 67 56c0-2.428-0.152-4.767-0.432-7h8.471C75.661 51.228 76 53.574 76 56 76 58.792 75.555 61.479 74.74 64z" fill="#8b3c7f" data-fill-palette-color="accent"></path></g></g></svg></g></svg></g></svg></g><defs></defs></svg><rect width="395.52" height="76.02940499327663" fill="none" stroke="none" visibility="hidden"></rect></g></svg></g></svg>