<svg xmlns="http://www.w3.org/2000/svg" version="1.1" xmlns:xlink="http://www.w3.org/1999/xlink" xmlns:svgjs="http://svgjs.dev/svgjs" width="128" height="128" viewBox="0 0 128 128"><g transform="matrix(0.8046875,0,0,0.8046875,12.760752631578946,13.073162821689593)"><svg viewBox="0 0 95 94" data-background-color="#ffffff" preserveAspectRatio="xMidYMid meet" height="126" width="128" xmlns="http://www.w3.org/2000/svg" xmlns:xlink="http://www.w3.org/1999/xlink"><g id="tight-bounds" transform="matrix(1,0,0,1,-0.24049999999999727,0.21464824544851524)"><svg viewBox="0 0 95.481 93.57070350910298" height="93.57070350910298" width="95.481"><g><svg viewBox="0 0 95.481 93.57070350910298" height="93.57070350910298" width="95.481"><g><svg viewBox="0 0 95.481 93.57070350910298" height="93.57070350910298" width="95.481"><g id="textblocktransform"><svg viewBox="0 0 95.481 93.57070350910298" height="93.57070350910298" width="95.481" id="textblock"><g><svg viewBox="0 0 95.481 93.57070350910298" height="93.57070350910298" width="95.481"><g><svg viewBox="0 0 95.481 93.57070350910298" height="93.57070350910298" width="95.481"><g><svg xmlns="http://www.w3.org/2000/svg" xmlns:xlink="http://www.w3.org/1999/xlink" version="1.1" x="0" y="0" viewBox="11.000749999999996 12 75.51075000000002 74" enable-background="new 0 0 100 100" xml:space="preserve" height="93.57070350910298" width="95.481" class="icon-icon-0" data-fill-palette-color="accent" id="icon-0"><g fill="#8b3c7f" data-fill-palette-color="accent"><path d="M70.659 28.521l5.866 1.183c0.814 0.164 0.814 1.327 0 1.491l-5.866 1.183c-0.3 0.061-0.535 0.295-0.595 0.595l-1.183 5.866c-0.164 0.814-1.327 0.814-1.491 0l-1.183-5.866c-0.061-0.3-0.295-0.535-0.595-0.595l-5.866-1.183c-0.814-0.164-0.814-1.327 0-1.491l5.866-1.183c0.3-0.061 0.535-0.295 0.595-0.595l1.183-5.866c0.164-0.814 1.327-0.814 1.491 0l1.183 5.866C70.125 28.226 70.359 28.461 70.659 28.521z" fill="#8b3c7f" data-fill-palette-color="accent"></path><path d="M82.194 21.097l3.911 0.789c0.542 0.109 0.542 0.885 0 0.994l-3.911 0.789c-0.2 0.04-0.356 0.197-0.397 0.397l-0.789 3.911c-0.109 0.542-0.885 0.542-0.994 0l-0.789-3.911c-0.04-0.2-0.197-0.356-0.397-0.397l-3.911-0.789c-0.542-0.109-0.542-0.885 0-0.994l3.911-0.789c0.2-0.04 0.356-0.197 0.397-0.397l0.789-3.911c0.109-0.542 0.885-0.542 0.994 0l0.789 3.911C81.838 20.9 81.994 21.057 82.194 21.097z" fill="#8b3c7f" data-fill-palette-color="accent"></path><path d="M25.195 69.597l6.993 1.41c1.083 0.218 1.083 1.767 0 1.985l-6.993 1.41c-0.4 0.081-0.712 0.393-0.792 0.792l-1.41 6.993c-0.218 1.083-1.767 1.083-1.985 0l-1.41-6.993c-0.081-0.4-0.393-0.712-0.792-0.792l-6.993-1.41c-1.083-0.218-1.083-1.767 0-1.985l6.993-1.41c0.4-0.081 0.712-0.393 0.792-0.792l1.41-6.993c0.218-1.083 1.767-1.083 1.985 0l1.41 6.993C24.483 69.204 24.796 69.517 25.195 69.597z" fill="#8b3c7f" data-fill-palette-color="accent"></path><g fill="#8b3c7f" data-fill-palette-color="accent"><path d="M78 45.248V45h-0.098c-1.443-3.648-3.592-6.937-6.262-9.721l-0.798 3.957c-0.062 0.307-0.174 0.59-0.322 0.847 1.18 1.519 2.216 3.157 3.04 4.918h-7.658c-0.936-4.449-2.436-8.328-4.366-11.403l-2.185-0.441c-1.304-0.263-2.215-1.376-2.215-2.706s0.911-2.443 2.215-2.706l0.404-0.082c-2.154-0.743-4.412-1.261-6.755-1.495V15c0-1.657-1.343-3-3-3s-3 1.343-3 3v11.15C31.861 27.66 20 40.47 20 56c0 1.213 0.081 2.407 0.221 3.583C20.721 59.218 21.333 59 22 59c1.452 0 2.666 0.994 2.953 2.417l1.281 6.349L27.392 68h6.925c1.094 4.679 2.828 8.68 5.031 11.717-2.614-1.176-4.993-2.775-7.062-4.704l-4.663 0.94C33.121 82.113 41.114 86 50 86c16.542 0 30-13.458 30-30C80 52.212 79.287 48.589 78 45.248zM34.099 45h-7.658c2.635-5.633 7.229-10.162 12.907-12.717C36.991 35.534 35.173 39.892 34.099 45zM48 81.693C43.845 80.41 40.343 75.189 38.468 68H48V81.693zM48 64H37.63C37.223 61.479 37 58.792 37 56c0-2.426 0.17-4.772 0.481-7H48V64zM52 81.693V68h9.532C59.657 75.189 56.155 80.41 52 81.693zM52 45V30.307c4.345 1.342 7.978 6.99 9.78 14.693H52zM74.74 64h-8.307C66.802 61.47 67 58.792 67 56c0-2.428-0.152-4.767-0.432-7h8.471C75.661 51.228 76 53.574 76 56 76 58.792 75.555 61.479 74.74 64z" fill="#8b3c7f" data-fill-palette-color="accent"></path></g></g></svg></g></svg></g></svg></g></svg></g></svg></g></svg></g><defs></defs></svg><rect width="95.481" height="93.57070350910298" fill="none" stroke="none" visibility="hidden"></rect></g></svg></g></svg>