<svg xmlns="http://www.w3.org/2000/svg" version="1.1" xmlns:xlink="http://www.w3.org/1999/xlink" xmlns:svgjs="http://svgjs.dev/svgjs" width="1500" height="276" viewBox="0 0 1500 276"><g transform="matrix(1,0,0,1,-0.9090909090909918,0.17844398808964002)"><svg viewBox="0 0 396 73" data-background-color="#ffffff" preserveAspectRatio="xMidYMid meet" height="276" width="1500" xmlns="http://www.w3.org/2000/svg" xmlns:xlink="http://www.w3.org/1999/xlink"><g id="tight-bounds" transform="matrix(1,0,0,1,0.2400000000000091,-0.04719714177733181)"><svg viewBox="0 0 395.52 73.09439428355468" height="73.09439428355468" width="395.52"><g><svg viewBox="0 0 519.5991436463019 96.02494102720507" height="73.09439428355468" width="395.52"><g transform="matrix(1,0,0,1,124.07914364630182,13.2711749176528)"><svg viewBox="0 0 395.52 69.48259119189947" height="69.48259119189947" width="395.52"><g id="textblocktransform"><svg viewBox="0 0 395.52 69.48259119189947" height="69.48259119189947" width="395.52" id="textblock"><g><svg viewBox="0 0 395.52 69.48259119189947" height="69.48259119189947" width="395.52"><g transform="matrix(1,0,0,1,0,0)"><svg width="395.52" viewBox="1.25 -34.35 200.1 35.160000000000004" height="69.48259119189947" data-palette-color="#106a46"><path d="M27-23.46L27-23.46Q27-19.8 25.27-17.38 23.54-14.97 20.61-13.76 17.68-12.55 14.09-12.55L14.09-12.55 13.94-12.55Q12.96-12.55 11.78-12.63 10.6-12.72 10.4-12.74L10.4-12.74 10.4-3.44Q10.4-3.08 10.66-2.73 10.91-2.39 11.45-2.34L11.45-2.34 14.75-2.15 14.75 0 1.61 0 1.61-2.15 4.25-2.34Q4.79-2.39 5.07-2.73 5.35-3.08 5.35-3.44L5.35-3.44 5.35-30.1Q5.35-30.47 5.07-30.82 4.79-31.18 4.25-31.2L4.25-31.2 1.25-31.4 1.25-33.54 13.21-33.54Q20.29-33.54 23.65-31.27 27-29 27-23.46ZM21.8-23.39L21.8-23.39Q21.8-27.03 19.76-29.06 17.72-31.1 12.94-31.1L12.94-31.1Q12.26-31.1 11.33-31.08 10.4-31.05 10.4-31.05L10.4-31.05 10.4-15.31Q10.52-15.31 11.51-15.17 12.5-15.04 13.21-15.04L13.21-15.04 13.35-15.04Q17.24-15.04 19.52-17.07 21.8-19.09 21.8-23.39ZM64.5-2.15L64.5 0 51.85 0 51.85-2.15 54.71-2.34Q55.22-2.39 55.49-2.73 55.76-3.08 55.76-3.44L55.76-3.44 55.76-16.36 39.3-16.36 39.3-3.44Q39.3-3.08 39.56-2.73 39.82-2.39 40.35-2.34L40.35-2.34 43.21-2.15 43.21 0 30.56 0 30.56-2.15 33.15-2.34Q33.69-2.39 33.97-2.73 34.25-3.08 34.25-3.44L34.25-3.44 34.25-30.1Q34.25-30.47 33.97-30.8 33.69-31.13 33.15-31.15L33.15-31.15 30.56-31.35 30.56-33.54 43.21-33.54 43.21-31.35 40.35-31.15Q39.82-31.13 39.56-30.8 39.3-30.47 39.3-30.1L39.3-30.1 39.3-18.85 55.76-18.85 55.76-30.1Q55.76-30.47 55.49-30.8 55.22-31.13 54.71-31.15L54.71-31.15 51.85-31.35 51.85-33.54 64.5-33.54 64.5-31.35 61.91-31.15Q61.37-31.13 61.09-30.8 60.81-30.47 60.81-30.1L60.81-30.1 60.81-3.44Q60.81-3.08 61.09-2.73 61.37-2.39 61.91-2.34L61.91-2.34 64.5-2.15ZM100.7-16.75L100.7-16.75Q100.7-13.11 99.54-9.94 98.38-6.76 96.24-4.35 94.09-1.93 91.08-0.56 88.08 0.81 84.42 0.81L84.42 0.81Q79.51 0.81 75.84-1.5 72.16-3.81 70.11-7.79 68.06-11.77 68.06-16.8L68.06-16.8Q68.06-20.46 69.2-23.63 70.33-26.81 72.48-29.22 74.63-31.64 77.63-33 80.63-34.35 84.37-34.35L84.37-34.35Q88.08-34.35 91.08-32.98 94.09-31.62 96.24-29.19 98.38-26.76 99.54-23.57 100.7-20.39 100.7-16.75ZM94.92-16.7L94.92-16.7Q94.92-20.78 93.75-24.13 92.57-27.49 90.24-29.49 87.91-31.49 84.42-31.49L84.42-31.49Q80.81-31.49 78.45-29.48 76.09-27.47 74.95-24.12 73.8-20.78 73.8-16.8L73.8-16.8Q73.8-12.79 74.95-9.41 76.09-6.03 78.43-3.99 80.76-1.95 84.3-1.95L84.3-1.95Q87.91-1.95 90.25-3.99 92.6-6.03 93.76-9.39 94.92-12.74 94.92-16.7ZM135.1-2.1L135.1 0.15Q134.78 0.17 133.85 0.49 132.93 0.81 131.8 0.81L131.8 0.81Q129.24 0.81 127.74-0.05 126.24-0.9 125.42-2.31 124.6-3.71 124.13-5.4 123.65-7.08 123.16-8.75 122.67-10.42 121.82-11.83 120.96-13.23 119.43-14.09 117.89-14.94 115.25-14.94L115.25-14.94Q114.47-14.94 113.77-14.89 113.08-14.84 113.01-14.84L113.01-14.84 113.01-3.44Q113.01-3.08 113.26-2.73 113.52-2.39 114.06-2.34L114.06-2.34 116.69-2.15 116.69 0 104.26 0 104.26-2.15 106.85-2.34Q107.39-2.39 107.67-2.73 107.95-3.08 107.95-3.44L107.95-3.44 107.95-30.1Q107.95-30.47 107.67-30.82 107.39-31.18 106.85-31.2L106.85-31.2 104.26-31.4 104.26-33.54 117.3-33.54Q122.99-33.54 126.27-31.58 129.56-29.61 129.56-24.66L129.56-24.66Q129.56-22.05 128.39-20.37 127.21-18.7 125.35-17.75 123.48-16.8 121.35-16.31L121.35-16.31Q123.67-15.75 124.98-14.71 126.29-13.67 126.92-12.35 127.56-11.04 127.87-9.62 128.19-8.2 128.51-6.86 128.83-5.52 129.47-4.44 130.12-3.37 131.44-2.73 132.76-2.1 135.1-2.1L135.1-2.1ZM124.11-24.44L124.11-24.44Q124.11-27.64 122.08-29.37 120.04-31.1 115.3-31.1L115.3-31.1 113.01-31.1 113.01-17.41Q113.13-17.41 114.02-17.38 114.91-17.36 115.5-17.36L115.5-17.36Q119.67-17.36 121.89-18.9 124.11-20.43 124.11-24.44ZM169.69-16.75L169.69-16.75Q169.69-13.11 168.53-9.94 167.37-6.76 165.22-4.35 163.08-1.93 160.07-0.56 157.07 0.81 153.41 0.81L153.41 0.81Q148.5 0.81 144.83-1.5 141.15-3.81 139.1-7.79 137.05-11.77 137.05-16.8L137.05-16.8Q137.05-20.46 138.19-23.63 139.32-26.81 141.47-29.22 143.62-31.64 146.62-33 149.62-34.35 153.36-34.35L153.36-34.35Q157.07-34.35 160.07-32.98 163.08-31.62 165.22-29.19 167.37-26.76 168.53-23.57 169.69-20.39 169.69-16.75ZM163.91-16.7L163.91-16.7Q163.91-20.78 162.73-24.13 161.56-27.49 159.23-29.49 156.9-31.49 153.41-31.49L153.41-31.49Q149.79-31.49 147.44-29.48 145.08-27.47 143.94-24.12 142.79-20.78 142.79-16.8L142.79-16.8Q142.79-12.79 143.94-9.41 145.08-6.03 147.41-3.99 149.75-1.95 153.29-1.95L153.29-1.95Q156.9-1.95 159.24-3.99 161.59-6.03 162.75-9.39 163.91-12.74 163.91-16.7ZM201.35-16.75L201.35-16.75Q201.35-13.11 200.2-9.94 199.04-6.76 196.89-4.35 194.74-1.93 191.74-0.56 188.73 0.81 185.07 0.81L185.07 0.81Q180.16 0.81 176.49-1.5 172.81-3.81 170.76-7.79 168.71-11.77 168.71-16.8L168.71-16.8Q168.71-20.46 169.85-23.63 170.98-26.81 173.13-29.22 175.28-31.64 178.28-33 181.29-34.35 185.02-34.35L185.02-34.35Q188.73-34.35 191.74-32.98 194.74-31.62 196.89-29.19 199.04-26.76 200.2-23.57 201.35-20.39 201.35-16.75ZM195.57-16.7L195.57-16.7Q195.57-20.78 194.4-24.13 193.22-27.49 190.89-29.49 188.56-31.49 185.07-31.49L185.07-31.49Q181.46-31.49 179.1-29.48 176.75-27.47 175.6-24.12 174.45-20.78 174.45-16.8L174.45-16.8Q174.45-12.79 175.6-9.41 176.75-6.03 179.08-3.99 181.41-1.95 184.95-1.95L184.95-1.95Q188.56-1.95 190.91-3.99 193.25-6.03 194.41-9.39 195.57-12.74 195.57-16.7Z" opacity="1" transform="matrix(1,0,0,1,0,0)" fill="#106a46" class="wordmark-text-0" data-fill-palette-color="primary" id="text-0"></path></svg></g></svg></g></svg></g></svg></g><g><svg viewBox="0 0 107.67597144808296 96.02494102720507" height="96.02494102720507" width="107.67597144808296"><g><svg version="1.0" xmlns="http://www.w3.org/2000/svg" xmlns:xlink="http://www.w3.org/1999/xlink" x="8" y="0" viewBox="0 0 95.471 100" enable-background="new 0 0 95.471 100" xml:space="preserve" width="91.67597144808296" height="96.02494102720507" class="icon-icon-0" data-fill-palette-color="accent" id="icon-0"><path d="M47.735 0c-0.083 2.825-1.738 13.412-19.799 30.934C10.554 47.797 2.439 49.824 0 50c2.439 0.178 10.554 2.204 27.936 19.066C45.997 86.589 47.652 97.177 47.735 100c0.083-2.823 1.739-13.411 19.798-30.934C84.917 52.204 93.031 50.178 95.471 50c-2.439-0.176-10.554-2.203-27.938-19.066C49.475 13.412 47.819 2.825 47.735 0z" fill="#a6bb05" data-fill-palette-color="accent"></path></svg></g></svg></g></svg></g><defs></defs></svg><rect width="395.52" height="73.09439428355468" fill="none" stroke="none" visibility="hidden"></rect></g></svg></g></svg>